<svg width="80" height="80" viewBox="0 0 80 80" fill="none" xmlns="http://www.w3.org/2000/svg">
<path d="M76.6666 63.3333C76.6666 65.1014 75.9642 66.7971 74.714 68.0474C73.4637 69.2976 71.768 70 69.9999 70H9.99992C8.23181 70 6.53612 69.2976 5.28587 68.0474C4.03563 66.7971 3.33325 65.1014 3.33325 63.3333V26.6667C3.33325 24.8986 4.03563 23.2029 5.28587 21.9526C6.53612 20.7024 8.23181 20 9.99992 20H23.3333L29.9999 10H49.9999L56.6666 20H69.9999C71.768 20 73.4637 20.7024 74.714 21.9526C75.9642 23.2029 76.6666 24.8986 76.6666 26.6667V63.3333Z" stroke="#1E1E1E" stroke-width="4" stroke-linecap="round" stroke-linejoin="round"/>
<path d="M39.9999 56.6667C47.3637 56.6667 53.3332 50.6971 53.3332 43.3333C53.3332 35.9695 47.3637 30 39.9999 30C32.6361 30 26.6666 35.9695 26.6666 43.3333C26.6666 50.6971 32.6361 56.6667 39.9999 56.6667Z" stroke="#1E1E1E" stroke-width="4" stroke-linecap="round" stroke-linejoin="round"/>
</svg>
