<svg width="45" height="65" viewBox="0 0 45 65" fill="none" xmlns="http://www.w3.org/2000/svg">
<path d="M39.8731 25.4849V31.7783C39.8715 36.1206 37.9289 40.0411 34.7782 42.8989C31.6224 45.7525 27.2953 47.5117 22.5006 47.5117C17.706 47.5117 13.377 45.7525 10.2213 42.8989C7.07071 40.0411 5.12826 36.1205 5.12658 31.7783V25.4849H0V31.7783C0.00490622 42.2354 8.72957 50.8551 19.9375 52.0126V60.8723H13.3874V64.9999H31.6143V60.8723H25.0642V52.0126C36.2703 50.8549 44.995 42.2354 45 31.7783V25.4849H39.8731Z" fill="black"/>
<path d="M22.5006 42.4064C28.9705 42.4064 34.2341 37.6379 34.2341 31.7784V10.628C34.2341 4.76849 28.9705 0 22.5006 0C16.0306 0 10.7654 4.76849 10.7654 10.628V31.7783C10.7654 37.6379 16.0306 42.4064 22.5006 42.4064ZM15.8921 10.628C15.8921 7.32723 18.856 4.64293 22.5006 4.64293C26.1436 4.64293 29.1075 7.32723 29.1075 10.628V31.7783C29.1075 35.0791 26.1436 37.7634 22.5006 37.7634C18.8559 37.7634 15.8921 35.0791 15.8921 31.7783V10.628Z" fill="black"/>
</svg>
