<svg width="75" height="88" viewBox="0 0 75 88" fill="none" xmlns="http://www.w3.org/2000/svg">
<path d="M37.5 43.75C41.8265 43.75 46.0558 42.4671 49.6531 40.0634C53.2504 37.6598 56.0542 34.2433 57.7099 30.2462C59.3655 26.2491 59.7987 21.8507 58.9547 17.6074C58.1106 13.3641 56.0272 9.46632 52.968 6.40705C49.9087 3.34777 46.0109 1.26438 41.7676 0.420332C37.5243 -0.42372 33.1259 0.00947807 29.1288 1.66514C25.1317 3.32081 21.7153 6.12459 19.3116 9.72191C16.9079 13.3192 15.625 17.5485 15.625 21.875C15.625 27.6766 17.9297 33.2406 22.032 37.343C26.1344 41.4453 31.6984 43.75 37.5 43.75ZM37.5 6.25001C40.5903 6.25001 43.6113 7.1664 46.1808 8.8833C48.7503 10.6002 50.753 13.0405 51.9356 15.8956C53.1182 18.7507 53.4277 21.8923 52.8248 24.9233C52.2219 27.9542 50.7337 30.7384 48.5485 32.9236C46.3633 35.1087 43.5792 36.5969 40.5483 37.1998C37.5173 37.8027 34.3757 37.4932 31.5206 36.3106C28.6655 35.128 26.2252 33.1253 24.5083 30.5558C22.7914 27.9863 21.875 24.9653 21.875 21.875C21.875 17.731 23.5212 13.7567 26.4515 10.8265C29.3817 7.89621 33.356 6.25001 37.5 6.25001Z" fill="black"/>
<path d="M40.625 50H34.375C25.2582 50 16.5148 53.6216 10.0682 60.0682C3.62164 66.5148 0 75.2582 0 84.375C0 85.2038 0.329241 85.9987 0.915292 86.5847C1.50134 87.1708 2.2962 87.5 3.125 87.5H71.875C72.7038 87.5 73.4987 87.1708 74.0847 86.5847C74.6708 85.9987 75 85.2038 75 84.375C75 75.2582 71.3784 66.5148 64.9318 60.0682C58.4852 53.6216 49.7418 50 40.625 50ZM6.4375 81.25C7.20592 74.377 10.4797 68.0281 15.6334 63.4163C20.787 58.8045 27.4592 56.2533 34.375 56.25H40.625C47.5408 56.2533 54.213 58.8045 59.3666 63.4163C64.5203 68.0281 67.7941 74.377 68.5625 81.25H6.4375Z" fill="black"/>
</svg>
